<svg xmlns="http://www.w3.org/2000/svg" xmlns:xlink="http://www.w3.org/1999/xlink" id="Layer_1" x="0px" y="0px" viewBox="0 0 1254 281" style="enable-background:new 0 0 1254 281;" xml:space="preserve"> <style type="text/css"> .st0{opacity:0.25;fill:#FFFFFF;} </style> <path class="st0" d="M233.1,38.3c-5.8-6.6-14.5-9.9-26.5-9.9c-19.2,0-35,15.9-53.3,34.4c-14.4,14.5-30.8,31-50.5,40.2 c-33,15.5-81.6,13.6-102.7,11.9v4.5c21.7,1.8,70.4,3.6,104.6-12.4c20.5-9.6,37.1-26.4,51.8-41.1c17.6-17.7,32.9-33.1,50.2-33.1 c10.9,0,18.2,2.6,23.2,8.3c9.9,11.4,11.1,35.8,4.3,84.2c-4.2,29.6-1.3,57.5,1.2,82.1c3.2,31,5.8,56.1-5.9,74h5.2 c10.8-19.2,8.1-45.1,5.1-74.5c-2.5-24.4-5.4-52-1.3-81C245.6,75.5,244.1,50.9,233.1,38.3z M192.5,86c-18.9-3.8-40.2,18.4-62.7,42 c-14,14.6-28.4,29.7-42.5,38.5c-26.8,16.7-68,21.1-87.4,22.2v1.5c19.5-1.1,61.1-5.5,88.2-22.4c14.2-8.9,28.7-24.1,42.7-38.7 C153,105.9,174,84,192.1,87.6c6.1,1.2,10.8,9.5,13.4,23.9c8.7,47-5.7,137.4-38.4,170.2h2.1c34.1-35.5,45.5-128.7,37.8-170.5 C204.3,96,199.3,87.3,192.5,86z M400.7,130.9c24.8,30.1,50.4,61.3,79.2,67.2c48.3,9.9,66.2-15.6,109.5-77.4 c11.3-16.1,24.1-34.4,39.7-55.3c57.8-77.5,108.1-64.3,166.4-49c17.3,4.6,35.2,9.3,54.4,12C901,35.7,943,26.3,965.5,2.7h-6.4 C937,23,897.9,30.8,850.5,24c-18.9-2.7-36.7-7.4-53.9-11.9c-13.8-3.6-27.1-7.1-40.3-9.4c-17.3-3-34.2-3.9-51.1,0 c-25.9,5.9-51.9,22.9-79.7,60.1c-15.7,21-28.5,39.3-39.8,55.4c-43.3,61.8-59.4,84.9-104.9,75.6c-27.2-5.6-52.3-36.1-76.6-65.6 c-25.8-31.4-52.4-63.8-82.7-67.8c-6.7-0.9-12.1,0.7-16.1,4.6c-12.9,12.7-8.9,48.5-4.2,90c5.4,47.6,11.4,101-7.9,126.7h5.4 c18.1-27.9,12.2-80.3,6.9-127.2c-4.4-38.7-8.5-75.2,2.9-86.4c3-2.9,7-4,12.4-3.3C349.4,68.4,375.5,100.2,400.7,130.9z M402.5,216.1 c-13.9-14.1-23.1-23.5-29.1-23c-1.6,0.1-2.9,0.9-3.9,2.4c-9.7,13.8,7.4,66,14.5,86.1h1.6c-6.9-19.5-24.2-72.1-14.9-85.3 c0.8-1.1,1.7-1.6,2.8-1.7c5.4-0.5,15.3,9.7,28,22.5c19.7,20,47.6,48.4,83.4,64.5h3.7C451.5,265.9,422.6,236.5,402.5,216.1z M170,159.2c-14.6-7.5-18.6-3.1-31.9,11.4c-7.9,8.6-19.7,21.7-39.6,38.3C60.3,241,19,251.2,0,254.4v1.5 c19.1-3.2,60.8-13.4,99.5-45.8c19.9-16.7,31.8-29.8,39.7-38.4c13.3-14.6,16.5-18.1,30.1-11.1c4.7,2.4,7.2,8.9,7.4,18.8 c0.4,27.6-18.8,79.3-44.8,102.2h2.2c25.7-23.8,44.5-74.8,44-102.2C178,168.9,175.2,161.9,170,159.2z M425.4,90.8 c19.1,27.9,37.1,54.3,62.5,54.3c30.6,0,60.8-35.5,95.8-76.6c19.7-23.2,40-47,61.8-65.9h-6.7c-20.6,18.5-39.7,41.1-58.4,63 c-32.8,38.6-63.8,75-92.4,75c-23,0-40.4-25.4-58.8-52.3c-20.1-29.4-40.9-59.8-71.6-59.8c-61.7,0-94.2-10.8-98.3-20.8 c-0.3-0.7-1-2.4,0.3-5h-4.8c-0.8,2.7-0.4,5,0.3,6.7C261,23.7,301.1,33,357.5,33C385.9,32.9,406,62.3,425.4,90.8z M493,109.6 L493,109.6c15.7,0,31.5-10.6,47.1-31.6c9.7-13,24.1-27.6,39.4-43c10.8-10.8,21.7-21.8,31.2-32.5h-2c-9.3,10.4-19.9,21-30.3,31.5 c-15.3,15.4-29.8,30-39.6,43.1c-15.2,20.5-30.6,31-45.9,31l0,0c-15.2,0-29.9-10.4-43.9-30.9c-18-26.5-23.6-40.9-19.6-49.7 c3.1-6.8,12.6-10.9,29.6-12.8c17.1-1.9,31.6-5.8,44.5-12.1h-3.2C486.4,9,472.2,11.8,459,13.2c-17.9,2-27.4,6.2-30.8,13.6 c-4.4,9.5,1.1,23.9,19.7,51.2C462.1,99,477.3,109.6,493,109.6z M471.7,47.6c-2.7,7.4-1,15.8,5,24.9c6.3,9.4,13.4,14.2,21.2,14.2l0,0 c12.1,0,24.9-11.9,34.1-31.7c6.4-13.7,4.3-22,1.4-26.5c-3.8-6-10.7-8.2-15.8-8.2c-1.7,0-3.3,0.2-4.8,0.6 C489.6,27.6,475.8,36.6,471.7,47.6z M513.3,22.4c1.4-0.4,2.8-0.6,4.4-0.6c4.7,0,11.1,2,14.6,7.5c2.7,4.2,4.6,12-1.5,25.1 c-8.9,19-21.4,30.8-32.8,30.8l0,0c-7.3,0-14-4.6-20-13.5c-5.8-8.7-7.4-16.6-4.9-23.6C477,37.6,490.5,28.9,513.3,22.4z M91.3,58.6 c30-7.1,49-28.1,67.3-48.4c2.3-2.6,4.6-5.1,6.9-7.6h-6.1c-1.4,1.5-2.8,3.1-4.2,4.6C137.5,27,119,47.4,90.3,54.2 C50,63.8,16.1,59.7,0,56.6v4.5c8.8,1.7,22.4,3.5,39.1,3.5C54.3,64.7,72.1,63.1,91.3,58.6z M75.8,20.8c15-2.8,28.5-9.7,40.9-18.2H114 c-11.7,7.8-24.4,14.1-38.5,16.7c-32.8,6.2-61-0.4-75.5-5.1v1.6c10.4,3.4,27.5,7.5,48.2,7.5C56.9,23.3,66.1,22.6,75.8,20.8z M1195.9,61.7l-7.8-1.9c-31.7-7.7-49.2-11.9-55-22.9c-3.7-7.1-2.7-17,3.5-34.4h-1.6c-6.2,17.6-7.1,27.7-3.2,35.1 c6,11.6,23.8,15.9,55.9,23.6l7.8,1.9c27.9,6.8,44.7,26.7,54.7,46.4c1.6,3.1,3,6.3,4.3,9.4v-3.8c-1.3-2.9-2.7-5.9-4.3-8.8 C1239.9,87.3,1223.1,68.4,1195.9,61.7z M1068.6,105.6c-25.8-4.5-48-8.3-54.1-21.5c-7.1-15.3,2.5-31.2,13.6-49.6 c5.9-9.8,12.4-20.5,16.6-32h-1.6c-4.2,11.2-10.5,21.6-16.3,31.2c-11.3,18.7-21.1,34.9-13.7,51c6.4,13.9,29,17.8,55.2,22.3 c31.7,5.5,67.6,11.7,90.5,36.2c35,37.5,45.2,113.9,47.6,138.3h1.5c-2.4-24.3-12.7-101.4-48.1-139.3 C1136.7,117.5,1098.9,110.9,1068.6,105.6z M1199.6,120.5c-29.3-24.4-61.2-31-84.5-35.9l-2.4-0.5c-23.3-4.9-37.2-12.7-41.3-23.3 c-3.7-9.4,0-21.8,10.8-36.9c5.8-8.1,9.6-15,12.2-21.3h-4.8c-2.4,5.6-5.9,11.6-11,18.7c-11.9,16.7-15.7,30.1-11.4,41.2 c4.8,12.3,19.4,20.8,44.6,26.1l2.4,0.5c40.3,8.4,103.9,21.6,136,119.4c1.5,4.6,2.9,9.4,4.3,14.4v-15.2c-1.4-4.1-2.8-8.2-4.3-12.1 C1238,163.4,1221.1,138.3,1199.6,120.5z M1250.2,17.1c-8.5-3.3-18.3-8.1-23.2-14.5h-1.9c4.9,7.3,15.9,12.7,25,16.1 c1.5,0.6,2.9,1.1,4.3,1.5v-1.6C1253.2,18.2,1251.7,17.6,1250.2,17.1z M1215.6,29.9c-18.5-3.5-27.6-8.2-31.4-16 c-1.5-3.2-2.2-6.9-1.9-11.3h-1.5c-0.3,4.7,0.4,8.6,2.1,12c5,10.3,18.6,14.2,32.5,16.8c14.8,2.8,26.6,12,34.9,20.9 c1.6,1.7,3,3.3,4.3,4.9v-2.3c-1.3-1.6-2.8-3.1-4.3-4.7C1241.8,41.4,1230.1,32.7,1215.6,29.9z M690.4,54.2 c22.4-15.2,62.4-6.4,108.8,3.8c45.2,9.9,96.5,21.2,140.9,11.3c36.9-8.2,60.7-30.6,70.6-66.7h-1.5c-9.9,35.3-33.2,57.2-69.4,65.2 c-44.1,9.7-95.2-1.5-140.2-11.3c-46.7-10.2-87-19.1-109.9-3.6c-18.4,12.4-36.6,43.6-56,76.7c-28.4,48.4-60.5,103.3-101.3,114.1 c-71.5,18.8-141.8-76.2-161.6-105.8c-11.2-16.7-21.3-24.3-28.5-21.4c-10.6,4.2-12.4,29.6-5.1,71.4c9.4,53.9,9.4,81.8,8.5,93.7h1.5 c0.9-12.1,0.9-39.7-8.6-94c-10-57.4-0.4-67.9,4.2-69.8c6.4-2.6,16.1,5,26.7,20.8c18.2,27.1,78.5,108.9,143.9,108.9 c6.4,0,12.9-0.8,19.4-2.5c41.4-10.9,73.7-66.1,102.2-114.7C654.1,97.5,672.3,66.4,690.4,54.2z M1109.4,152.6 c-47.6-41.7-117.3-35.7-168.2-31.3c-4.8,0.4-9.5,0.8-13.9,1.2c-41.3,3.2-80-10.9-114.2-23.3c-30.8-11.2-57.4-20.8-78.7-15.3 c-39.9,10.3-60.1,53.6-81.4,99.3c-2.7,5.8-5.5,11.9-8.4,17.8c-18.5,38.6-50.5,68.6-64.7,80.6h6.8c15.8-14,44.6-42.6,61.9-78.7 c2.9-6,5.7-12,8.4-17.8c20.9-44.8,40.6-87.1,78.5-96.9c20-5.2,46,4.3,76.1,15.2c34.6,12.6,73.8,26.8,116,23.5 c4.5-0.3,9.1-0.7,14-1.2c50.1-4.3,118.7-10.2,164.9,30.2c29.4,25.8,46.3,68,50.2,125.6h4.5C1157.2,222.6,1139.8,179.2,1109.4,152.6z M928.3,241c-7.9-0.1-16.1-0.1-24.9-0.3c-46.6-0.8-73.8-14.1-91.8-22.9c-14.5-7.1-23.2-11.3-31.6-4.4 c-14.5,12.1-19.5,51.4-20.9,68.1h1.5c1.5-16.6,6.5-55.4,20.4-67c7.6-6.3,16-2.2,30,4.6c18.1,8.9,45.5,22.3,92.4,23 c8.8,0.1,17,0.2,25,0.3c43.8,0.3,72.7,0.5,85.7,14.5c5.3,5.7,8,13.6,8.4,24.6h1.5c-0.3-11.4-3.2-19.6-8.8-25.6 C1001.6,241.6,972.4,241.3,928.3,241z M982.7,274c-5.5-4.4-14.5-3.4-29.4-1.7c-9.7,1.1-21.7,2.4-36.7,2.7c-36.2,0.8-58-4.5-75.4-8.8 c-7.7-1.9-14.3-3.5-21.2-4.4c-5.9-0.8-10.4,0.5-13.5,3.8c-3.9,4.2-4.6,10.8-4.4,15.9h1.5c-0.1-4.9,0.5-11.1,4-14.9 c2.7-2.9,6.8-4.1,12.2-3.4c6.8,0.9,13.4,2.5,21,4.4c17.6,4.3,39.4,9.6,75.8,8.8c15.1-0.3,27.2-1.7,36.9-2.8 c14.6-1.6,23.3-2.6,28.3,1.4c1.8,1.4,3.1,3.5,4,6.4h1.6C986.3,278.1,984.8,275.6,982.7,274z M956.4,168.6 c-14.7,0.6-29.9,1.1-43.9,0.8c-39.2-1-70.6-14.8-98.4-27c-13.8-6.1-26.9-11.8-39.6-15.4c-11-3.1-21.5-1.9-31.1,3.6 c-23.6,13.5-37.5,49.4-45,77.3c-9.4,34.9-36.8,61.7-51.1,73.8h2.3c14.7-12.7,41-39.2,50.2-73.4c7.4-27.5,21.1-63.1,44.3-76.3 c9.3-5.3,19.3-6.4,30-3.5c12.5,3.5,25.6,9.2,39.4,15.3c27.9,12.3,59.5,26.2,99,27.2c14,0.4,29.3-0.2,44-0.8 c47.6-1.8,96.8-3.6,122,24.2c25.7,28.5,30.3,70.3,31.1,87.3h1.5c-0.8-17.1-5.5-59.4-31.5-88.3 C1053.9,164.9,1004.4,166.8,956.4,168.6z M1023.4,205.4c-19.3-4.2-43-3.3-68.2-2.5c-36.4,1.3-77.7,2.7-113.4-11.2 c-4.3-1.7-8.4-3.3-12.4-4.9c-34-13.5-56.4-22.4-72.9-14.2c-9.9,4.9-17,15.8-22.3,34.4c-10.9,38.3-25,63.6-32,74.6h5.3 c7.5-12.2,20.6-36.8,31-73.4c4.9-17.2,11.2-27.3,19.9-31.6c14.7-7.3,36.4,1.3,69.3,14.4c4,1.6,8.1,3.2,12.4,4.9 c36.6,14.3,78.3,12.8,115.2,11.5c24.9-0.9,48.3-1.7,67,2.4c35.7,7.8,41.1,53.6,41.8,71.8h4.5C1068,262.5,1062.2,213.8,1023.4,205.4z "></path> </svg>