<?xml version="1.0" encoding="utf-8"?>
<!-- Generator: Adobe Illustrator 25.1.0, SVG Export Plug-In . SVG Version: 6.00 Build 0)  -->
<svg version="1.1" id="Layer_1" xmlns="http://www.w3.org/2000/svg" xmlns:xlink="http://www.w3.org/1999/xlink" x="0px" y="0px"
	 viewBox="0 0 188 50" style="enable-background:new 0 0 188 50;" xml:space="preserve">
<g>
	<g>
		<g>
			<path d="M77,20c-1.9-0.9-3.5-1.3-4.7-1.3c-0.8,0-1.5,0.1-1.9,0.4c-0.5,0.3-0.7,0.7-0.7,1.2c0,0.4,0.1,0.7,0.4,1
				c0.2,0.3,1.2,0.8,2.9,1.8c1.7,0.9,3,1.8,3.8,2.6c0.8,0.8,1.2,1.9,1.2,3.2c0,1.6-0.6,2.9-1.7,3.8c-1.1,0.9-2.7,1.3-4.7,1.3
				c-0.5,0-0.8,0-1-0.1c-0.2,0-0.6-0.1-1-0.1c-0.4-0.1-0.8-0.1-1.2-0.3c-0.4-0.1-1.1-0.4-2.1-0.9l-1.2-0.5l1.4-3.2
				c1.1,0.6,2.1,1.1,2.8,1.3c0.8,0.3,1.5,0.4,2.3,0.4c0.8,0,1.4-0.2,1.9-0.5c0.5-0.3,0.7-0.8,0.7-1.3c0-0.4-0.1-0.7-0.3-1
				c-0.2-0.3-0.6-0.6-1.3-0.9L70,25.5c-1.6-0.9-2.7-1.7-3.3-2.4c-0.6-0.7-0.9-1.6-0.9-2.5c0-0.9,0.2-1.7,0.6-2.3
				c0.4-0.6,0.9-1.1,1.5-1.6c0.6-0.4,1.3-0.7,1.9-0.9c0.7-0.2,1.5-0.3,2.5-0.3c1.2,0,2.1,0.1,2.8,0.3c0.7,0.2,1.3,0.4,1.7,0.5
				c0.4,0.2,0.9,0.4,1.4,0.6L77,20z"/>
			<path d="M92.5,33.7V15.8h10.9v2.9h-7.5v4.4h6.1V26h-6.1v4.8h7.9v2.9H92.5z"/>
			<path d="M127.3,33.7l-4.1-7.2l-1.7,0v7.2H118V15.8h6c1.3,0,2.4,0.1,3,0.3c0.7,0.2,1.4,0.6,2.2,1.3c0.8,0.7,1.1,1.9,1.1,3.6
				c0,1.4-0.2,2.4-0.7,3.1c-0.5,0.7-0.9,1.1-1.3,1.3c-0.4,0.2-1,0.4-1.7,0.6l4.5,7.7L127.3,33.7z M123.7,18.7h-2.2v4.9h2.2
				c2.1,0,3.1-0.8,3.1-2.5c0-0.8-0.2-1.5-0.7-1.8C125.6,18.9,124.8,18.7,123.7,18.7z"/>
			<path d="M144.8,33.7V15.8h10.9v2.9h-7.5v4.4h6.1V26h-6.1v4.8h7.9v2.9H144.8z"/>
			<path d="M180.3,20c-1.9-0.9-3.5-1.3-4.7-1.3c-0.8,0-1.5,0.1-1.9,0.4c-0.5,0.3-0.7,0.7-0.7,1.2c0,0.4,0.1,0.7,0.4,1
				c0.2,0.3,1.2,0.8,2.9,1.8c1.7,0.9,3,1.8,3.8,2.6c0.8,0.8,1.2,1.9,1.2,3.2c0,1.6-0.6,2.9-1.7,3.8c-1.1,0.9-2.7,1.3-4.7,1.3
				c-0.5,0-0.8,0-1-0.1c-0.2,0-0.6-0.1-1-0.1c-0.4-0.1-0.8-0.1-1.2-0.3c-0.4-0.1-1.1-0.4-2.1-0.9l-1.2-0.5l1.4-3.2
				c1.1,0.6,2.1,1.1,2.8,1.3c0.8,0.3,1.5,0.4,2.3,0.4c0.8,0,1.4-0.2,1.9-0.5c0.5-0.3,0.7-0.8,0.7-1.3c0-0.4-0.1-0.7-0.3-1
				c-0.2-0.3-0.6-0.6-1.3-0.9l-2.8-1.6c-1.6-0.9-2.7-1.7-3.3-2.4c-0.6-0.7-0.9-1.6-0.9-2.5c0-0.9,0.2-1.7,0.6-2.3
				c0.4-0.6,0.9-1.1,1.5-1.6c0.6-0.4,1.3-0.7,1.9-0.9c0.7-0.2,1.5-0.3,2.5-0.3c1.2,0,2.1,0.1,2.8,0.3c0.7,0.2,1.3,0.4,1.7,0.5
				c0.4,0.2,0.9,0.4,1.4,0.6L180.3,20z"/>
		</g>
	</g>
	<path d="M28.5,47.9c-3.2,0-6.4-1.3-9.7-3.7C2.5,31.9,3.7,22.2,3.8,21.6c0-0.3,0.3-3.3,2.5-7c2.1-3.5,6.5-8.2,15.3-10.9
		c8.2-2.6,14.4-1.4,18,0c3.9,1.5,5.9,3.6,6.1,3.8c2.2,2,3.4,5.1,3.7,9.2c0.5,7.5-4,16.5-4.2,16.9c0,0.1-1.2,2.9-3.5,6
		c-2.1,2.9-5.5,6.6-10.1,7.8C30.7,47.7,29.6,47.9,28.5,47.9z M31,3c-2.7,0-5.7,0.4-9.1,1.5C5.5,9.5,4.6,21.5,4.6,21.6l0,0
		c0,0.1-1.3,9.7,14.7,21.8c4.2,3.2,8.3,4.2,12.2,3.2c8.2-2.2,12.9-13.2,13-13.4c0.1-0.1,4.6-9.2,4.1-16.5c-0.2-3.9-1.4-6.8-3.4-8.7
		l0,0C45.1,8,40.3,3,31,3z"/>
	<path d="M26.9,44.9c-2.5,0-5-0.9-7.5-2.7c-15-10.9-14-20.3-14-20.6c0-0.1,0.2-3.1,2.5-6.5c2-3.2,6.2-7.4,14.5-9.3
		c13.2-3.1,19.9,3.2,20.2,3.5c1.9,1.7,3,4.4,3.2,8c0.4,6.5-3.5,14.1-3.6,14.4c0,0.1-1.2,2.7-3.3,5.6c-2,2.7-5.2,6.2-9.3,7.2
		C28.7,44.8,27.8,44.9,26.9,44.9z M29.3,5.7c-2,0-4.3,0.2-6.8,0.8c-4.4,1-10.4,3.4-14,8.9c-2.1,3.3-2.3,6.2-2.4,6.2
		c0,0.1-0.9,9.3,13.6,19.9c3.2,2.3,6.4,3.1,9.5,2.2c7.4-2,12-12.3,12.1-12.4c0-0.1,3.9-7.7,3.5-14c-0.2-3.4-1.2-5.9-2.9-7.5l0,0
		C42,9.8,37.7,5.7,29.3,5.7z"/>
	<path d="M25.9,42c-2.3,0-4.7-0.8-7.1-2.5C6.3,30.7,7.1,22,7.1,21.6c0-0.1,0.7-9.9,14-13.4c12-3.1,18.1,3,18.3,3.3l0,0
		c1.7,1.8,2.6,4,2.7,7c0.3,5.6-3,12.3-3.1,12.6c0,0.1-1,2.2-2.7,4.5c-1.6,2.2-4.3,5-7.8,6C27.6,41.8,26.7,42,25.9,42z M27.6,8.2
		c-1.9,0-3.9,0.2-6.2,0.8c-3.7,1-8.7,3.1-11.5,7.6c-1.7,2.7-1.9,5-1.9,5.1c0,0-0.2,2.2,1.1,5.3c1.2,2.9,3.9,7.3,10.2,11.8
		c3.1,2.2,6.1,2.8,9,2c6.3-1.7,10-10,10.1-10.1c0-0.1,3.4-6.8,3-12.2c-0.2-2.7-1-4.8-2.5-6.4l0,0C38.8,12,35,8.2,27.6,8.2z"/>
	<path d="M25.4,39.1c-2,0-4.1-0.7-6.3-2.1C7.9,29.6,8.6,22,8.7,21.6c0-0.4,0.9-8,11.5-11c5.3-1.5,9.4-0.7,11.9,0.4
		c2.7,1.1,4.1,2.5,4.3,2.6c1.4,1.3,2.2,3.3,2.4,6c0.3,4.7-2.5,10.4-2.7,10.8c-0.1,0.2-0.7,1.8-2,3.6c-1.8,2.5-3.9,4.2-6.2,4.9
		C27.1,39,26.2,39.1,25.4,39.1z M25.8,10.5c-1.6,0-3.4,0.2-5.4,0.8c-10.3,3-10.9,10.2-10.9,10.3l0,0c0,0.1-0.8,7.5,10,14.6
		c2.9,1.9,5.6,2.4,8.1,1.6c5-1.6,7.6-8,7.7-8l0,0c0-0.1,2.9-5.8,2.6-10.4c-0.2-2.5-0.9-4.3-2.1-5.4l0,0c0,0-1.4-1.4-4-2.4
		C30.3,11.1,28.3,10.5,25.8,10.5z"/>
	<path d="M24.4,36.7c-1.8,0-3.6-0.7-5.5-2c-9.2-6.5-8.7-12.9-8.6-13.2c0-0.2,0.6-6.4,9.9-9.3c8.6-2.7,12.9,1.7,13.3,2.1
		c1.2,1.1,1.9,2.8,2,5.1c0.3,4-1.8,8.7-2,9.1c-0.2,0.4-2.4,6.4-7,7.9C25.8,36.6,25.1,36.7,24.4,36.7z M25.4,12.3
		c-1.5,0-3.1,0.2-5,0.8c-4.6,1.4-6.9,3.7-8,5.3c-1.2,1.8-1.3,3.2-1.3,3.2c0,0.1-0.5,6.3,8.3,12.4c2.4,1.7,4.7,2.2,6.8,1.6
		c4.3-1.4,6.5-7.3,6.5-7.4l0,0c0,0,2.1-4.8,1.9-8.7c-0.1-2.1-0.7-3.6-1.8-4.6l0,0C32.7,14.8,30.2,12.3,25.4,12.3z"/>
	<path d="M23.5,33.9c-1.4,0-2.9-0.6-4.5-1.7c-7.5-5.3-7.2-10.5-7.1-10.7c0-0.2,0.4-5,8-7.4c7-2.2,10.5,1.3,10.8,1.6
		c1,0.9,1.6,2.3,1.7,4.2c0.2,3.3-1.4,7.1-1.6,7.4c-0.1,0.4-1.9,5.1-5.5,6.2C24.6,33.8,24,33.9,23.5,33.9z M24.2,14.3
		c-1.2,0-2.5,0.2-4.1,0.7c-7,2.2-7.4,6.5-7.4,6.7c0,0-0.3,5,6.8,9.9c2,1.4,3.8,1.8,5.5,1.3c3.4-1.1,5-5.7,5-5.7l0,0
		c0,0,1.7-3.9,1.5-7c-0.1-1.7-0.6-2.9-1.4-3.7l0,0C29.9,16.3,28,14.3,24.2,14.3z"/>
</g>
</svg>
